{
  "accessors": [
    {
      "bufferView": 2,
      "componentType": 5126,
      "count": 417,
      "max": [
        222.70437622070312,
        381.03036499023438,
        701.42083740234375
      ],
      "min": [
        -220.49078369140625,
        300.15560913085938,
        638.874267578125
      ],
      "type": "VEC3"
    },
    {
      "bufferView": 2,
      "byteOffset": 5004,
      "componentType": 5126,
      "count": 417,
      "max": [
        0.99917095899581909,
        0.99898236989974976,
        0.99975240230560303
      ],
      "min": [
        -0.99964547157287598,
        -0.9999997615814209,
        -0.99972164630889893
      ],
      "type": "VEC3"
    },
    {
      "bufferView": 3,
      "componentType": 5126,
      "count": 417,
      "max": [
        0.99998629093170166,
        0.99999982118606567,
        0.99811679124832153,
        1
      ],
      "min": [
        -0.99993419647216797,
        -0.88553082942962646,
        -0.99918055534362793,
        -1
      ],
      "type": "VEC4"
    },
    {
      "bufferView": 1,
      "componentType": 5126,
      "count": 417,
      "max": [
        0.82644414901733398,
        0.9243810772895813
      ],
      "min": [
        0.0096585219725966454,
        0.27985283732414246
      ],
      "type": "VEC2"
    },
    {
      "bufferView": 0,
      "componentType": 5125,
      "count": 1230,
      "max": [
        416
      ],
      "min": [
        0
      ],
      "type": "SCALAR"
    },
    {
      "bufferView": 2,
      "byteOffset": 10008,
      "componentType": 5126,
      "count": 1172,
      "max": [
        193.5101318359375,
        586.83056640625,
        1336.005126953125
      ],
      "min": [
        -193.84146118164062,
        510.528076171875,
        1200.0906982421875
      ],
      "type": "VEC3"
    },
    {
      "bufferView": 2,
      "byteOffset": 24072,
      "componentType": 5126,
      "count": 1172,
      "max": [
        0.99990051984786987,
        0.99998664855957031,
        0.99991238117218018
      ],
      "min": [
        -0.99991035461425781,
        -0.9999815821647644,
        -0.99944204092025757
      ],
      "type": "VEC3"
    },
    {
      "bufferView": 3,
      "byteOffset": 6672,
      "componentType": 5126,
      "count": 1172,
      "max": [
        0.99999946355819702,
        0.97451186180114746,
        0.90760886669158936,
        1
      ],
      "min": [
        -0.79034948348999023,
        -0.96845388412475586,
        -0.99998021125793457,
        1
      ],
      "type": "VEC4"
    },
    {
      "bufferView": 1,
      "byteOffset": 3336,
      "componentType": 5126,
      "count": 1172,
      "max": [
        0.57654929161071777,
        0.97993803024291992
      ],
      "min": [
        0.0096585219725966454,
        0.8155829906463623
      ],
      "type": "VEC2"
    },
    {
      "bufferView": 0,
      "byteOffset": 4920,
      "componentType": 5125,
      "count": 5856,
      "max": [
        1171
      ],
      "min": [
        0
      ],
      "type": "SCALAR"
    },
    {
      "bufferView": 2,
      "byteOffset": 38136,
      "componentType": 5126,
      "count": 2912,
      "max": [
        215.90098571777344,
        688.1751708984375,
        1385.030029296875
      ],
      "min": [
        -215.23130798339844,
        415.48727416992188,
        608.44000244140625
      ],
      "type": "VEC3"
    },
    {
      "bufferView": 2,
      "byteOffset": 73080,
      "componentType": 5126,
      "count": 2912,
      "max": [
        1,
        1,
        0.99559849500656128
      ],
      "min": [
        -1,
        -0.9999883770942688,
        -0.99996674060821533
      ],
      "type": "VEC3"
    },
    {
      "bufferView": 3,
      "byteOffset": 25424,
      "componentType": 5126,
      "count": 2912,
      "max": [
        1,
        0.99999850988388062,
        0.96794497966766357,
        1
      ],
      "min": [
        -1,
        -0.99999922513961792,
        -0.95866501331329346,
        1
      ],
      "type": "VEC4"
    },
    {
      "bufferView": 1,
      "byteOffset": 12712,
      "componentType": 5126,
      "count": 2912,
      "max": [
        0.76052588224411011,
        0.86805617809295654
      ],
      "min": [
        0.004999999888241291,
        0.004999999888241291
      ],
      "type": "VEC2"
    },
    {
      "bufferView": 0,
      "byteOffset": 28344,
      "componentType": 5125,
      "count": 16044,
      "max": [
        2911
      ],
      "min": [
        0
      ],
      "type": "SCALAR"
    },
    {
      "bufferView": 2,
      "byteOffset": 108024,
      "componentType": 5126,
      "count": 1780,
      "max": [
        215.35966491699219,
        455.57122802734375,
        707.794189453125
      ],
      "min": [
        -214.69767761230469,
        18.289459228515625,
        565.17840576171875
      ],
      "type": "VEC3"
    },
    {
      "bufferView": 2,
      "byteOffset": 129384,
      "componentType": 5126,
      "count": 1780,
      "max": [
        1,
        0.99940073490142822,
        0.99966412782669067
      ],
      "min": [
        -1,
        -0.99936699867248535,
        -0.99999940395355225
      ],
      "type": "VEC3"
    },
    {
      "bufferView": 3,
      "byteOffset": 72016,
      "componentType": 5126,
      "count": 1780,
      "max": [
        1,
        0.99999982118606567,
        0.9976269006729126,
        1
      ],
      "min": [
        -0.81822407245635986,
        -0.56261140108108521,
        -0.60532766580581665,
        1
      ],
      "type": "VEC4"
    },
    {
      "bufferView": 1,
      "byteOffset": 36008,
      "componentType": 5126,
      "count": 1780,
      "max": [
        0.65156435966491699,
        0.74036514759063721
      ],
      "min": [
        0.0096585219725966454,
        0.005000007338821888
      ],
      "type": "VEC2"
    },
    {
      "bufferView": 0,
      "byteOffset": 92520,
      "componentType": 5125,
      "count": 9600,
      "max": [
        1779
      ],
      "min": [
        0
      ],
      "type": "SCALAR"
    },
    {
      "bufferView": 2,
      "byteOffset": 150744,
      "componentType": 5126,
      "count": 1322,
      "max": [
        50.7412109375,
        344.84817504882812,
        700.29608154296875
      ],
      "min": [
        -38.602676391601562,
        287.18624877929688,
        682.220458984375
      ],
      "type": "VEC3"
    },
    {
      "bufferView": 2,
      "byteOffset": 166608,
      "componentType": 5126,
      "count": 1322,
      "max": [
        0.9999854564666748,
        0.99994117021560669,
        0.99953728914260864
      ],
      "min": [
        -0.99977940320968628,
        -0.99994117021560669,
        -0.99953579902648926
      ],
      "type": "VEC3"
    },
    {
      "bufferView": 3,
      "byteOffset": 100496,
      "componentType": 5126,
      "count": 1322,
      "max": [
        0.99978476762771606,
        0.99994057416915894,
        0.99995929002761841,
        1
      ],
      "min": [
        -0.99978470802307129,
        -0.27332091331481934,
        -0.99952423572540283,
        1
      ],
      "type": "VEC4"
    },
    {
      "bufferView": 1,
      "byteOffset": 50248,
      "componentType": 5126,
      "count": 1322,
      "max": [
        0.95148921012878418,
        0.81930088996887207
      ],
      "min": [
        0.00965852290391922,
        0.14009715616703033
      ],
      "type": "VEC2"
    },
    {
      "bufferView": 0,
      "byteOffset": 130920,
      "componentType": 5125,
      "count": 3612,
      "max": [
        1321
      ],
      "min": [
        0
      ],
      "type": "SCALAR"
    },
    {
      "bufferView": 2,
      "byteOffset": 182472,
      "componentType": 5126,
      "count": 2789,
      "max": [
        1720.7142333984375,
        290,
        1024.772216796875
      ],
      "min": [
        1133.6221923828125,
        -290,
        561.5096435546875
      ],
      "type": "VEC3"
    },
    {
      "bufferView": 2,
      "byteOffset": 215940,
      "componentType": 5126,
      "count": 2789,
      "max": [
        1,
        1,
        1
      ],
      "min": [
        -1,
        -1,
        -1
      ],
      "type": "VEC3"
    },
    {
      "bufferView": 3,
      "byteOffset": 121648,
      "componentType": 5126,
      "count": 2789,
      "max": [
        1,
        1,
        1,
        1
      ],
      "min": [
        -1,
        -1,
        -1,
        1
      ],
      "type": "VEC4"
    },
    {
      "bufferView": 1,
      "byteOffset": 60824,
      "componentType": 5126,
      "count": 2789,
      "max": [
        0.98776870965957642,
        0.99215388298034668
      ],
      "min": [
        0.004999999888241291,
        0.004999999888241291
      ],
      "type": "VEC2"
    },
    {
      "bufferView": 0,
      "byteOffset": 145368,
      "componentType": 5125,
      "count": 8694,
      "max": [
        2788
      ],
      "min": [
        0
      ],
      "type": "SCALAR"
    },
    {
      "bufferView": 2,
      "byteOffset": 249408,
      "componentType": 5126,
      "count": 4153,
      "max": [
        1757.048583984375,
        285,
        1209.210205078125
      ],
      "min": [
        1150.3349609375,
        -285,
        235.04339599609375
      ],
      "type": "VEC3"
    },
    {
      "bufferView": 2,
      "byteOffset": 299244,
      "componentType": 5126,
      "count": 4153,
      "max": [
        1,
        1,
        1
      ],
      "min": [
        -1,
        -1,
        -1
      ],
      "type": "VEC3"
    },
    {
      "bufferView": 3,
      "byteOffset": 166272,
      "componentType": 5126,
      "count": 4153,
      "max": [
        1,
        1,
        1,
        1
      ],
      "min": [
        -1,
        -1,
        -1,
        -1
      ],
      "type": "VEC4"
    },
    {
      "bufferView": 1,
      "byteOffset": 83136,
      "componentType": 5126,
      "count": 4153,
      "max": [
        0.99500000476837158,
        0.99288642406463623
      ],
      "min": [
        0.004999999888241291,
        0.0050000008195638657
      ],
      "type": "VEC2"
    },
    {
      "bufferView": 0,
      "byteOffset": 180144,
      "componentType": 5125,
      "count": 15294,
      "max": [
        4152
      ],
      "min": [
        0
      ],
      "type": "SCALAR"
    },
    {
      "bufferView": 2,
      "byteOffset": 349080,
      "componentType": 5126,
      "count": 2093,
      "max": [
        1752.2947998046875,
        285,
        1159.337646484375
      ],
      "min": [
        1094.9190673828125,
        -285,
        235.68646240234375
      ],
      "type": "VEC3"
    },
    {
      "bufferView": 2,
      "byteOffset": 374196,
      "componentType": 5126,
      "count": 2093,
      "max": [
        1,
        1,
        1
      ],
      "min": [
        -1,
        -1,
        -1
      ],
      "type": "VEC3"
    },
    {
      "bufferView": 3,
      "byteOffset": 232720,
      "componentType": 5126,
      "count": 2093,
      "max": [
        1,
        1,
        1,
        1
      ],
      "min": [
        -1,
        -1,
        -1,
        1
      ],
      "type": "VEC4"
    },
    {
      "bufferView": 1,
      "byteOffset": 116360,
      "componentType": 5126,
      "count": 2093,
      "max": [
        0.99407029151916504,
        0.99238425493240356
      ],
      "min": [
        0.004999999888241291,
        0.004999999888241291
      ],
      "type": "VEC2"
    },
    {
      "bufferView": 0,
      "byteOffset": 241320,
      "componentType": 5125,
      "count": 5574,
      "max": [
        2092
      ],
      "min": [
        0
      ],
      "type": "SCALAR"
    },
    {
      "bufferView": 2,
      "byteOffset": 399312,
      "componentType": 5126,
      "count": 706,
      "max": [
        199.34834289550781,
        581.434814453125,
        859.7984619140625
      ],
      "min": [
        -201.39108276367188,
        481.04165649414062,
        633.42022705078125
      ],
      "type": "VEC3"
    },
    {
      "bufferView": 2,
      "byteOffset": 407784,
      "componentType": 5126,
      "count": 706,
      "max": [
        0.9993668794631958,
        0.99479711055755615,
        0.99374043941497803
      ],
      "min": [
        -0.99952739477157593,
        -0.99516844749450684,
        -0.94141703844070435
      ],
      "type": "VEC3"
    },
    {
      "bufferView": 3,
      "byteOffset": 266208,
      "componentType": 5126,
      "count": 706,
      "max": [
        0.99999886751174927,
        0.9995768666267395,
        0.91557496786117554,
        1
      ],
      "min": [
        -0.14283281564712524,
        -0.99897342920303345,
        -0.89832180738449097,
        1
      ],
      "type": "VEC4"
    },
    {
      "bufferView": 1,
      "byteOffset": 133104,
      "componentType": 5126,
      "count": 706,
      "max": [
        0.61731773614883423,
        0.98232173919677734
      ],
      "min": [
        0.26587730646133423,
        0.88080233335494995
      ],
      "type": "VEC2"
    },
    {
      "bufferView": 0,
      "byteOffset": 263616,
      "componentType": 5125,
      "count": 3840,
      "max": [
        705
      ],
      "min": [
        0
      ],
      "type": "SCALAR"
    }
  ],
  "asset": {
    "extras": {
      "author": "shah_max (https://sketchfab.com/shah_max)",
      "license": "CC-BY-4.0 (http://creativecommons.org/licenses/by/4.0/)",
      "source": "https://sketchfab.com/3d-models/seat-8336f7cd7d1d438182d349e8e7bdb085",
      "title": "Seat"
    },
    "generator": "Sketchfab-8.66.0",
    "version": "2.0"
  },
  "bufferViews": [
    {
      "buffer": 0,
      "byteLength": 278976,
      "byteOffset": 0,
      "name": "floatBufferViews",
      "target": 34963
    },
    {
      "buffer": 0,
      "byteLength": 138752,
      "byteOffset": 278976,
      "byteStride": 8,
      "name": "floatBufferViews",
      "target": 34962
    },
    {
      "buffer": 0,
      "byteLength": 416256,
      "byteOffset": 417728,
      "byteStride": 12,
      "name": "floatBufferViews",
      "target": 34962
    },
    {
      "buffer": 0,
      "byteLength": 277504,
      "byteOffset": 833984,
      "byteStride": 16,
      "name": "floatBufferViews",
      "target": 34962
    }
  ],
  "buffers": [
    {
      "byteLength": 1111488,
      "uri": "scene.bin"
    }
  ],
  "images": [
    {
      "uri": "textures/chair_baseColor.jpeg"
    },
    {
      "uri": "textures/chair_metallicRoughness.png"
    },
    {
      "uri": "textures/chair_normal.jpeg"
    }
  ],
  "materials": [
    {
      "doubleSided": true,
      "emissiveFactor": [
        1,
        1,
        1
      ],
      "emissiveTexture": {
        "index": 0,
        "texCoord": 0
      },
      "name": "chair",
      "normalTexture": {
        "index": 2,
        "scale": 1,
        "texCoord": 0
      },
      "occlusionTexture": {
        "index": 1,
        "strength": 1,
        "texCoord": 0
      },
      "pbrMetallicRoughness": {
        "baseColorFactor": [
          1,
          1,
          1,
          1
        ],
        "baseColorTexture": {
          "index": 0,
          "texCoord": 0
        },
        "metallicFactor": 1,
        "metallicRoughnessTexture": {
          "index": 1,
          "texCoord": 0
        },
        "roughnessFactor": 1
      }
    }
  ],
  "meshes": [
    {
      "name": "Belt_low_chair_0",
      "primitives": [
        {
          "attributes": {
            "NORMAL": 1,
            "POSITION": 0,
            "TANGENT": 2,
            "TEXCOORD_0": 3
          },
          "indices": 4,
          "material": 0,
          "mode": 4
        }
      ]
    },
    {
      "name": "Sari_low_chair_0",
      "primitives": [
        {
          "attributes": {
            "NORMAL": 6,
            "POSITION": 5,
            "TANGENT": 7,
            "TEXCOORD_0": 8
          },
          "indices": 9,
          "material": 0,
          "mode": 4
        }
      ]
    },
    {
      "name": "Poshti_low_chair_0",
      "primitives": [
        {
          "attributes": {
            "NORMAL": 11,
            "POSITION": 10,
            "TANGENT": 12,
            "TEXCOORD_0": 13
          },
          "indices": 14,
          "material": 0,
          "mode": 4
        }
      ]
    },
    {
      "name": "Ziri_low_chair_0",
      "primitives": [
        {
          "attributes": {
            "NORMAL": 16,
            "POSITION": 15,
            "TANGENT": 17,
            "TEXCOORD_0": 18
          },
          "indices": 19,
          "material": 0,
          "mode": 4
        }
      ]
    },
    {
      "name": "Sagak_low_chair_0",
      "primitives": [
        {
          "attributes": {
            "NORMAL": 21,
            "POSITION": 20,
            "TANGENT": 22,
            "TEXCOORD_0": 23
          },
          "indices": 24,
          "material": 0,
          "mode": 4
        }
      ]
    },
    {
      "name": "structure1 _low_chair_0",
      "primitives": [
        {
          "attributes": {
            "NORMAL": 26,
            "POSITION": 25,
            "TANGENT": 27,
            "TEXCOORD_0": 28
          },
          "indices": 29,
          "material": 0,
          "mode": 4
        }
      ]
    },
    {
      "name": "structure2 _low_chair_0",
      "primitives": [
        {
          "attributes": {
            "NORMAL": 31,
            "POSITION": 30,
            "TANGENT": 32,
            "TEXCOORD_0": 33
          },
          "indices": 34,
          "material": 0,
          "mode": 4
        }
      ]
    },
    {
      "name": "structure3 _low_chair_0",
      "primitives": [
        {
          "attributes": {
            "NORMAL": 36,
            "POSITION": 35,
            "TANGENT": 37,
            "TEXCOORD_0": 38
          },
          "indices": 39,
          "material": 0,
          "mode": 4
        }
      ]
    },
    {
      "name": "Packet_low_chair_0",
      "primitives": [
        {
          "attributes": {
            "NORMAL": 41,
            "POSITION": 40,
            "TANGENT": 42,
            "TEXCOORD_0": 43
          },
          "indices": 44,
          "material": 0,
          "mode": 4
        }
      ]
    }
  ],
  "nodes": [
    {
      "children": [
        1
      ],
      "name": "RootNode (gltf orientation matrix)",
      "rotation": [
        -0.70710678118654746,
        -0,
        -0,
        0.70710678118654757
      ]
    },
    {
      "children": [
        2
      ],
      "name": "RootNode (model correction matrix)"
    },
    {
      "children": [
        3
      ],
      "matrix": [
        1,
        0,
        0,
        0,
        0,
        0,
        1,
        0,
        0,
        -1,
        0,
        0,
        0,
        0,
        0,
        1
      ],
      "name": "03612f56fa184690a24c4b225b0be6f1.fbx"
    },
    {
      "children": [
        4,
        6,
        8,
        10,
        12,
        14,
        17,
        20,
        23
      ],
      "name": "RootNode"
    },
    {
      "children": [
        5
      ],
      "matrix": [
        1,
        0,
        0,
        0,
        0,
        2.2204460492503131e-16,
        -1,
        0,
        0,
        1,
        2.2204460492503131e-16,
        0,
        0,
        0,
        0,
        1
      ],
      "name": "Belt_low"
    },
    {
      "mesh": 0,
      "name": "Belt_low_chair_0"
    },
    {
      "children": [
        7
      ],
      "matrix": [
        1,
        0,
        0,
        0,
        0,
        2.2204460492503131e-16,
        -1,
        0,
        0,
        1,
        2.2204460492503131e-16,
        0,
        0,
        0,
        0,
        1
      ],
      "name": "Sari_low"
    },
    {
      "mesh": 1,
      "name": "Sari_low_chair_0"
    },
    {
      "children": [
        9
      ],
      "matrix": [
        1,
        0,
        0,
        0,
        0,
        2.2204460492503131e-16,
        -1,
        0,
        0,
        1,
        2.2204460492503131e-16,
        0,
        0,
        0,
        0,
        1
      ],
      "name": "Poshti_low"
    },
    {
      "mesh": 2,
      "name": "Poshti_low_chair_0"
    },
    {
      "children": [
        11
      ],
      "matrix": [
        1,
        0,
        0,
        0,
        0,
        2.2204460492503131e-16,
        -1,
        0,
        0,
        1,
        2.2204460492503131e-16,
        0,
        0,
        0,
        0,
        1
      ],
      "name": "Ziri_low"
    },
    {
      "mesh": 3,
      "name": "Ziri_low_chair_0"
    },
    {
      "children": [
        13
      ],
      "matrix": [
        1,
        0,
        0,
        0,
        0,
        2.2204460492503131e-16,
        -1,
        0,
        0,
        1,
        2.2204460492503131e-16,
        0,
        0,
        0,
        0,
        1
      ],
      "name": "Sagak_low"
    },
    {
      "mesh": 4,
      "name": "Sagak_low_chair_0"
    },
    {
      "children": [
        15
      ],
      "matrix": [
        4.3711387731626417e-08,
        -5.5511151231257827e-17,
        -0.99999999999999933,
        0,
        -0.99999999999999933,
        0,
        -4.371138789815987e-08,
        0,
        5.5511151231257827e-17,
        1.0000000000000002,
        -2.2204460492503131e-16,
        0,
        3.059814453125,
        704.19744873046875,
        -301.82977294921875,
        1
      ],
      "name": "structure1 _low"
    },
    {
      "children": [
        16
      ],
      "matrix": [
        1,
        0,
        -0,
        0,
        0,
        1,
        0,
        0,
        0,
        0,
        1,
        0,
        -1376.458984375,
        0,
        -704.1973876953125,
        1
      ],
      "name": ""
    },
    {
      "mesh": 5,
      "name": "structure1 _low_chair_0"
    },
    {
      "children": [
        18
      ],
      "matrix": [
        4.3711387731626417e-08,
        -5.5511151231257827e-17,
        -0.99999999999999933,
        0,
        -0.99999999999999933,
        0,
        -4.371138789815987e-08,
        0,
        5.5511151231257827e-17,
        1.0000000000000002,
        -2.2204460492503131e-16,
        0,
        3.059814453125,
        869.43426513671875,
        -521.94598388671875,
        1
      ],
      "name": "structure2 _low"
    },
    {
      "children": [
        19
      ],
      "matrix": [
        1,
        0,
        -0,
        0,
        0,
        1,
        0,
        0,
        0,
        0,
        1,
        0,
        -1596.5751953125,
        0,
        -869.4342041015625,
        1
      ],
      "name": ""
    },
    {
      "mesh": 6,
      "name": "structure2 _low_chair_0"
    },
    {
      "children": [
        21
      ],
      "matrix": [
        4.3711387731626417e-08,
        -5.5511151231257827e-17,
        -0.99999999999999933,
        0,
        -0.99999999999999933,
        0,
        -4.371138789815987e-08,
        0,
        5.5511151231257827e-17,
        1.0000000000000002,
        -2.2204460492503131e-16,
        0,
        -174.440185546875,
        427.32357788085938,
        -282.67938232421875,
        1
      ],
      "name": "structure3 _low"
    },
    {
      "children": [
        22
      ],
      "matrix": [
        1,
        0,
        -0,
        0,
        0,
        1,
        0,
        0,
        0,
        0,
        1,
        0,
        -1357.30859375,
        -177.5,
        -427.32357788085938,
        1
      ],
      "name": ""
    },
    {
      "mesh": 7,
      "name": "structure3 _low_chair_0"
    },
    {
      "children": [
        24
      ],
      "matrix": [
        1,
        0,
        0,
        0,
        0,
        2.2204460492503131e-16,
        -1,
        0,
        0,
        1,
        2.2204460492503131e-16,
        0,
        0,
        0,
        0,
        1
      ],
      "name": "Packet_low"
    },
    {
      "mesh": 8,
      "name": "Packet_low_chair_0"
    }
  ],
  "samplers": [
    {
      "magFilter": 9729,
      "minFilter": 9987,
      "wrapS": 10497,
      "wrapT": 10497
    }
  ],
  "scene": 0,
  "scenes": [
    {
      "name": "OSG_Scene",
      "nodes": [
        0
      ]
    }
  ],
  "textures": [
    {
      "sampler": 0,
      "source": 0
    },
    {
      "sampler": 0,
      "source": 1
    },
    {
      "sampler": 0,
      "source": 2
    }
  ]
}

